<?xml version="1.0" encoding="UTF-8"?>
<svg width="512" height="512" viewBox="0 0 512 512" fill="none" xmlns="http://www.w3.org/2000/svg">
  <!-- Skull -->
  <circle cx="256" cy="256" r="160" fill="white"/>
  <!-- Eyes -->
  <path d="M176 224C176 224 192 208 224 208C256 208 272 224 272 224" stroke="black" stroke-width="16"/>
  <path d="M240 288C240 288 256 272 288 272C320 272 336 288 336 288" stroke="black" stroke-width="16"/>
  <!-- Nose -->
  <circle cx="256" cy="256" r="16" fill="black"/>
  <!-- Crossbones -->
  <path d="M128 384L384 128" stroke="white" stroke-width="32"/>
  <path d="M128 128L384 384" stroke="white" stroke-width="32"/>
  <!-- Straw hat -->
  <path d="M128 128C128 128 256 96 384 128" stroke="#FFD700" stroke-width="16"/>
  <path d="M144 112C144 112 256 80 368 112" stroke="#FF0000" stroke-width="8"/>
</svg>
